<svg xmlns="http://www.w3.org/2000/svg" viewBox="0 0 48 48" width="48" height="48">
<rect width="48" height="48" rx="6" fill="#1a1a1a"/>
<path d="M24 6c-5 0-8.5 2.2-8.5 5v3.5h9v1.5H13c-3 0-5.5 2-5.5 6s2.5 6 5.5 6h2v-3.5c0-3 2.5-5 5.5-5h9c2.5 0 4.5-2 4.5-4.5v-4.5C34 8.2 29 6 24 6z M21 9.5a1.5 1.5 0 1 1 0 3 1.5 1.5 0 0 1 0-3z" fill="#777777"/>
<path d="M24 42c5 0 8.5-2.2 8.5-5v-3.5h-9V32h12.5c3 0 5.5-2 5.5-6s-2.5-6-5.5-6h-2v3.5c0 3-2.5 5-5.5 5h-9c-2.5 0-4.5 2-4.5 4.5v4.5C14 39.8 19 42 24 42z M27 38.5a1.5 1.5 0 1 1 0-3 1.5 1.5 0 0 1 0 3z" fill="#999999"/>
</svg>