<svg xmlns="http://www.w3.org/2000/svg" viewBox="0 0 48 48" width="48" height="48">
<rect width="48" height="48" rx="6" fill="#1a1a1a"/>
<circle cx="24" cy="24" r="16" fill="none" stroke="#777777" stroke-width="2"/>
<circle cx="24" cy="24" r="5" fill="#777777"/>
<rect x="23" y="8" width="2" height="5" rx="1" fill="#777777"/>
<rect x="23" y="35" width="2" height="5" rx="1" fill="#777777"/>
<rect x="8" y="23" width="5" height="2" rx="1" fill="#777777"/>
<rect x="35" y="23" width="5" height="2" rx="1" fill="#777777"/>
<rect x="12.5" y="11.5" width="2" height="5" rx="1" fill="#777777" transform="rotate(45 13.5 14)"/>
<rect x="33.5" y="11.5" width="2" height="5" rx="1" fill="#777777" transform="rotate(-45 34.5 14)"/>
<rect x="33.5" y="31.5" width="2" height="5" rx="1" fill="#777777" transform="rotate(45 34.5 34)"/>
<rect x="12.5" y="31.5" width="2" height="5" rx="1" fill="#777777" transform="rotate(-45 13.5 34)"/>
<text x="18" y="29" font-family="monospace" font-weight="bold" font-size="14" fill="#999999">R</text>
</svg>